<svg width="32" height="32" viewBox="0 0 32 32" fill="none" xmlns="http://www.w3.org/2000/svg">
<g clip-path="url(#clip0_14_368)">
<rect width="32" height="32" fill="#121139"/>
<g clip-path="url(#clip1_14_368)" filter="url(#filter0_d_14_368)">
<path d="M18.0274 27.4232C17.3978 28.188 16.1212 27.7689 16.106 26.7924L15.8842 12.5089H25.8408C27.6442 12.5089 28.65 14.5181 27.5286 15.8805L18.0274 27.4232Z" fill="url(#paint0_linear_14_368)"/>
<g filter="url(#filter1_d_14_368)">
<path d="M18.0274 27.4232C17.3978 28.188 16.1212 27.7689 16.106 26.7924L15.8842 12.5089H25.8408C27.6442 12.5089 28.65 14.5181 27.5286 15.8805L18.0274 27.4232Z" fill="url(#paint1_linear_14_368)" fill-opacity="0.2" shape-rendering="crispEdges"/>
</g>
<path d="M13.9781 4.43987C14.6077 3.67497 15.8843 4.09408 15.8995 5.07066L15.9967 19.3541H6.16466C4.36119 19.3541 3.35536 17.3449 4.47681 15.9825L13.9781 4.43987Z" fill="#3ECF8E"/>
</g>
</g>
<defs>
<filter id="filter0_d_14_368" x="0" y="4" width="32" height="32" filterUnits="userSpaceOnUse" color-interpolation-filters="sRGB">
<feFlood flood-opacity="0" result="BackgroundImageFix"/>
<feColorMatrix in="SourceAlpha" type="matrix" values="0 0 0 0 0 0 0 0 0 0 0 0 0 0 0 0 0 0 127 0" result="hardAlpha"/>
<feOffset dy="4"/>
<feGaussianBlur stdDeviation="2"/>
<feComposite in2="hardAlpha" operator="out"/>
<feColorMatrix type="matrix" values="0 0 0 0 0 0 0 0 0 0 0 0 0 0 0 0 0 0 0.25 0"/>
<feBlend mode="normal" in2="BackgroundImageFix" result="effect1_dropShadow_14_368"/>
<feBlend mode="normal" in="SourceGraphic" in2="effect1_dropShadow_14_368" result="shape"/>
</filter>
<filter id="filter1_d_14_368" x="11.8842" y="12.5089" width="20.1158" height="23.3092" filterUnits="userSpaceOnUse" color-interpolation-filters="sRGB">
<feFlood flood-opacity="0" result="BackgroundImageFix"/>
<feColorMatrix in="SourceAlpha" type="matrix" values="0 0 0 0 0 0 0 0 0 0 0 0 0 0 0 0 0 0 127 0" result="hardAlpha"/>
<feOffset dy="4"/>
<feGaussianBlur stdDeviation="2"/>
<feComposite in2="hardAlpha" operator="out"/>
<feColorMatrix type="matrix" values="0 0 0 0 0 0 0 0 0 0 0 0 0 0 0 0 0 0 0.25 0"/>
<feBlend mode="normal" in2="BackgroundImageFix" result="effect1_dropShadow_14_368"/>
<feBlend mode="normal" in="SourceGraphic" in2="effect1_dropShadow_14_368" result="shape"/>
</filter>
<linearGradient id="paint0_linear_14_368" x1="15.8842" y1="15.6759" x2="24.6354" y2="19.4809" gradientUnits="userSpaceOnUse">
<stop stop-color="#249361"/>
<stop offset="1" stop-color="#3ECF8E"/>
</linearGradient>
<linearGradient id="paint1_linear_14_368" x1="11.9609" y1="10.4945" x2="15.7743" y2="17.9364" gradientUnits="userSpaceOnUse">
<stop/>
<stop offset="1" stop-opacity="0"/>
</linearGradient>
<clipPath id="clip0_14_368">
<rect width="32" height="32" fill="white"/>
</clipPath>
<clipPath id="clip1_14_368">
<rect width="24" height="24" fill="white" transform="translate(4 4)"/>
</clipPath>
</defs>
</svg>
