<svg width="120" height="120" viewBox="0 0 120 120" fill="none" xmlns="http://www.w3.org/2000/svg">
<circle cx="60" cy="60" r="60" fill="#423EE0"/>
<path d="M43.7349 75.41C45.3215 74.15 46.0449 73.5667 45.9049 73.66C50.4782 69.88 54.0716 66.7767 56.6849 64.35C59.3449 61.9233 61.5849 59.38 63.4049 56.72C65.2249 54.06 66.1349 51.47 66.1349 48.95C66.1349 47.0367 65.6916 45.5433 64.8049 44.47C63.9182 43.3967 62.5882 42.86 60.8149 42.86C59.0416 42.86 57.6415 43.5367 56.6149 44.89C55.6349 46.1967 55.1449 48.0633 55.1449 50.49H43.5949C43.6882 46.5233 44.5282 43.21 46.1149 40.55C47.7482 37.89 49.8715 35.93 52.4849 34.67C55.1449 33.41 58.0849 32.78 61.3049 32.78C66.8582 32.78 71.0349 34.2033 73.8349 37.05C76.6816 39.8967 78.1049 43.6067 78.1049 48.18C78.1049 53.1733 76.4016 57.8167 72.9949 62.11C69.5882 66.3567 65.2482 70.51 59.9749 74.57H78.8749V84.3H43.7349V75.41Z" fill="white"/>
</svg>
