<svg width="120" height="120" viewBox="0 0 120 120" fill="none" xmlns="http://www.w3.org/2000/svg">
<circle cx="60" cy="60" r="60" fill="#423EE0"/>
<path d="M43.8786 48.32C44.0653 43.3267 45.6986 39.4767 48.7786 36.77C51.8586 34.0633 56.0353 32.71 61.3086 32.71C64.8086 32.71 67.7953 33.3167 70.2686 34.53C72.7886 35.7433 74.6786 37.4 75.9386 39.5C77.2453 41.6 77.8986 43.9567 77.8986 46.57C77.8986 49.65 77.1286 52.17 75.5886 54.13C74.0486 56.0433 72.2519 57.35 70.1986 58.05V58.33C72.8586 59.2167 74.9586 60.6867 76.4986 62.74C78.0386 64.7933 78.8086 67.43 78.8086 70.65C78.8086 73.5433 78.1319 76.11 76.7786 78.35C75.4719 80.5433 73.5353 82.27 70.9686 83.53C68.4486 84.79 65.4386 85.42 61.9386 85.42C56.3386 85.42 51.8586 84.0433 48.4986 81.29C45.1853 78.5367 43.4353 74.3833 43.2486 68.83H54.8686C54.9153 70.8833 55.4986 72.5167 56.6186 73.73C57.7386 74.8967 59.3719 75.48 61.5186 75.48C63.3386 75.48 64.7386 74.9667 65.7186 73.94C66.7453 72.8667 67.2586 71.4667 67.2586 69.74C67.2586 67.5 66.5353 65.89 65.0886 64.91C63.6886 63.8833 61.4253 63.37 58.2986 63.37H56.0586V53.64H58.2986C60.6786 53.64 62.5919 53.2433 64.0386 52.45C65.5319 51.61 66.2786 50.14 66.2786 48.04C66.2786 46.36 65.8119 45.0533 64.8786 44.12C63.9453 43.1867 62.6619 42.72 61.0286 42.72C59.2553 42.72 57.9253 43.2567 57.0386 44.33C56.1986 45.4033 55.7086 46.7333 55.5686 48.32H43.8786Z" fill="white"/>
</svg>
